<svg width="287" height="92" viewBox="0 0 287 92" fill="none" xmlns="http://www.w3.org/2000/svg">
<path d="M0.479736 45.8302C0.479736 58.7145 8.75577 68.7774 21.8281 68.7774C29.0697 68.7774 35.0886 65.5798 38.0981 60.2192V69.4357C38.0981 78.182 32.4553 83.8247 23.8031 83.8247C16.0913 83.8247 11.0129 79.8748 9.88432 73.1035H1.04401C2.73684 84.7652 11.295 91.8186 23.8031 91.8186C37.91 91.8186 46.8443 82.6021 46.8443 68.1191V24.0116H38.9445L38.2861 31.8174C35.3707 26.0806 29.6339 22.695 22.2043 22.695C8.84981 22.695 0.479736 32.8519 0.479736 45.8302ZM9.32004 45.6421C9.32004 37.178 14.5866 30.4067 23.4269 30.4067C32.4553 30.4067 37.7219 36.8018 37.7219 45.6421C37.7219 54.6705 32.2672 61.0656 23.3329 61.0656C14.6807 61.0656 9.32004 54.2944 9.32004 45.6421Z" fill="#9AA8BD"/>
<path d="M81.2327 23.6354C79.4459 23.2592 78.1292 23.0711 76.5305 23.0711C70.2294 23.0711 65.6211 26.2687 63.7402 31.065L63.176 24.1056H54.8999V70H63.7402V45.6421C63.7402 36.8018 68.9127 31.7234 77.2828 31.7234H81.2327V23.6354Z" fill="#9AA8BD"/>
<path d="M98.2705 71.1285C105.7 71.1285 112.001 67.8369 114.352 62.5704L115.293 70H122.816V41.1279C122.816 28.7139 115.105 22.695 103.725 22.695C91.8753 22.695 83.9755 28.996 83.9755 38.5887H91.6873C91.6873 33.04 95.9193 29.7484 103.349 29.7484C109.556 29.7484 114.164 32.4757 114.164 40.1875V41.5041L99.6811 42.6327C88.8659 43.4791 82.5648 48.7456 82.5648 57.2098C82.5648 65.5798 88.3957 71.1285 98.2705 71.1285ZM100.81 64.2632C95.0729 64.2632 91.4992 61.818 91.4992 56.9276C91.4992 52.4134 94.6967 49.404 102.503 48.6516L114.258 47.7111V50.1563C114.258 58.8085 109.18 64.2632 100.81 64.2632Z" fill="#9AA8BD"/>
<path d="M124.996 90.596C127.348 91.1603 129.793 91.5365 132.708 91.5365C139.762 91.5365 144.37 88.2449 147.473 80.345L169.198 24.0116H160.075L146.439 61.0656L133.084 24.0116H123.774L142.301 72.4452L140.702 76.8653C138.539 82.6962 135.153 83.3545 130.921 83.3545H124.996V90.596Z" fill="#9AA8BD"/>
<path d="M183.424 70V0.782288H174.583V70H183.424Z" fill="#F44040"/>
<path d="M239.31 45.8302C239.31 58.7145 247.586 68.7774 260.659 68.7774C267.9 68.7774 273.919 65.5798 276.929 60.2192V69.4357C276.929 78.182 271.286 83.8247 262.634 83.8247C254.922 83.8247 249.843 79.8748 248.715 73.1035H239.875C241.567 84.7652 250.126 91.8186 262.634 91.8186C276.741 91.8186 285.675 82.6021 285.675 68.1191V24.0116H277.775L277.117 31.8174C274.201 26.0806 268.464 22.695 261.035 22.695C247.68 22.695 239.31 32.8519 239.31 45.8302ZM248.151 45.6421C248.151 37.178 253.417 30.4067 262.257 30.4067C271.286 30.4067 276.552 36.8018 276.552 45.6421C276.552 54.6705 271.098 61.0657 262.163 61.0657C253.511 61.0657 248.151 54.2944 248.151 45.6421Z" fill="#F44040"/>
<path fill-rule="evenodd" clip-rule="evenodd" d="M212.5 62C221.06 62 228 55.0604 228 46.5C228 37.9396 221.06 31 212.5 31C203.94 31 197 37.9396 197 46.5C197 55.0604 203.94 62 212.5 62ZM212.5 70C225.479 70 236 59.4787 236 46.5C236 33.5213 225.479 23 212.5 23C199.521 23 189 33.5213 189 46.5C189 59.4787 199.521 70 212.5 70Z" fill="#F44040"/>
<path fill-rule="evenodd" clip-rule="evenodd" d="M213.772 36.0561C213.892 35.6114 214.499 35.5522 214.703 35.9652L219.03 44.7215C219.114 44.892 219.288 45 219.478 45H223C223.828 45 224.5 45.6716 224.5 46.5C224.5 47.3284 223.828 48 223 48H217.614C217.424 48 217.25 47.892 217.166 47.7215L214.941 43.22L211.228 56.9439C211.108 57.3886 210.501 57.4478 210.297 57.0348L205.97 48.2785C205.886 48.108 205.712 48 205.522 48H202C201.172 48 200.5 47.3284 200.5 46.5C200.5 45.6716 201.172 45 202 45H207.386C207.576 45 207.75 45.108 207.834 45.2785L210.059 49.78L213.772 36.0561Z" fill="#9AA8BD"/>
</svg>
