<svg xmlns="http://www.w3.org/2000/svg" width="24" height="24" viewBox="0 0 64 64">>
    <path d="M63.27 1.608c3.4 3.4-6.03 18.295-7.62 19.886s-5.6.126-9-3.266-4.856-7.4-3.266-9c1.6-1.633 16.495-11 19.886-7.62zM15.7 5.2C10.518 2.278 3.15-.987.806 1.357-1.58 3.743 1.8 11.28 4.783 16.47 7.42 11.823 11.188 7.972 15.7 5.2zm42.378 15.122c.46 1.633.377 2.972-.377 3.726-1.8 1.8-6.698-.126-11.094-4.312-.293-.293-.628-.544-.92-.88-1.6-1.6-2.847-3.266-3.6-4.856-1.55-2.763-1.926-5.2-.754-6.364.628-.628 1.633-.795 2.9-.586.795-.502 1.758-1.1 2.805-1.675C42.755 3.157 37.94 1.9 32.833 1.9c-16.997 0-30.77 13.774-30.77 30.77s13.774 30.77 30.77 30.77 30.77-13.774 30.77-30.77c0-5.484-1.423-10.634-3.977-15.113a27.18 27.18 0 0 1-1.549 2.763z"/>
</svg>